<svg xmlns="http://www.w3.org/2000/svg" xmlns:xlink="http://www.w3.org/1999/xlink" width="245.596" height="277" viewBox="0 0 245.596 277"><image overflow="visible" width="239" height="277" xlink:href="60D4D6A47CFE6FB8.png" transform="translate(6.596)" opacity=".471"/><path fill="#3064DC" d="M47.003 36.054l133.029 1.536s-14.095-6.91-43.169 43.954H9.996s6.391-43.723 37.007-45.49z"/><linearGradient id="a" gradientUnits="userSpaceOnUse" x1="10.979" y1="84.57" x2="177.696" y2="30.4"><stop offset="0" stop-color="#fff"/><stop offset=".073" stop-color="#fcfcfc"/><stop offset=".136" stop-color="#f1f1f1"/><stop offset=".196" stop-color="#dfdfdf"/><stop offset=".253" stop-color="#c6c6c6"/><stop offset=".307" stop-color="#a6a6a6"/><stop offset=".327" stop-color="#999"/></linearGradient><path fill="url(#a)" d="M47.003 36.054l133.029 1.536s-14.095-6.91-43.169 43.954H9.996s6.391-43.723 37.007-45.49z"/><g fill="#999"><path d="M80.308 81.219l-80.29-.391c.033.223.06.436.084.651l80.357.392c-.049-.218-.1-.436-.151-.652z"/><path opacity=".98" d="M80.238 80.922c-8.7-.046-15.079-.082-15.163-.082-.282 0-64.54-.282-64.761-.231-.101.025-.192.311-.277.391.023.158.045.313.062.466.127-.044 11.293-.027 11.38-.064.087-.033 15.03.007 15.142-.02.22-.049 38.174.102 38.456.102.12.002 7.237.043 15.312.093a24.808 24.808 0 0 0-.151-.655z"/><path opacity=".961" d="M80.172 80.629c-8.598-.053-14.92-.09-15.097-.091-.566-.002-63.808-.247-64.249-.141-.221.052-.42.427-.594.503-.064.023-.123.102-.184.191.016.117.035.244.047.362.131-.084 11.206-.116 11.377-.182.174-.073 14.922-.064 15.14-.113.44-.103 37.903.018 38.463.02.239.002 7.267.048 15.248.107-.052-.218-.097-.438-.151-.656z"/><path opacity=".941" d="M80.097 80.336c-8.494-.059-14.758-.098-15.024-.1-.85-.004-63.068-.214-63.734-.055-.33.079-.627.478-.89.589-.143.062-.272.222-.391.378.013.095.026.195.033.293l.005.002c.168-.131 11.115-.202 11.371-.306.26-.109 14.809-.131 15.137-.209.659-.151 37.631-.067 38.472-.062.356.002 7.296.054 15.179.122-.054-.217-.105-.434-.158-.652z"/><path opacity=".922" d="M80.018 80.041c-8.384-.062-14.592-.104-14.942-.106-1.13-.004-62.337-.18-63.224.029-.439.104-.838.533-1.184.678-.23.098-.431.33-.607.529.01.082.023.173.03.26h.007c.228-.174 11.017-.282 11.364-.428.344-.142 14.695-.199 15.133-.3.881-.204 37.356-.146 38.48-.142.475.003 7.322.058 15.112.135-.054-.218-.115-.436-.169-.655z"/><path opacity=".902" d="M79.938 79.747c-8.277-.069-14.426-.114-14.862-.116-1.412-.005-61.602-.142-62.709.117-.551.131-1.05.584-1.483.766-.311.131-.586.424-.822.659.01.08.021.162.03.246l.008-.001c.284-.218 10.925-.369 11.357-.544.429-.183 14.582-.271 15.135-.397 1.098-.257 37.08-.23 38.483-.226.586.002 7.347.063 15.037.151-.055-.219-.118-.437-.174-.655z"/><path opacity=".882" d="M79.857 79.453c-8.168-.074-14.256-.122-14.785-.126-1.693-.004-60.869-.108-62.191.207-.664.157-1.261.635-1.779.854-.402.165-.746.51-1.041.786l.03.233.009-.003c.34-.261 10.834-.45 11.352-.666.517-.213 14.471-.336 15.131-.488 1.32-.307 36.811-.315 38.493-.311.706.006 7.371.071 14.96.169-.059-.22-.119-.438-.179-.655z"/><path opacity=".863" d="M79.779 79.158c-8.061-.079-14.096-.128-14.704-.133-1.979-.01-60.137-.071-61.684.293-.773.182-1.472.686-2.077.943-.483.201-.901.6-1.254.91.008.073.02.151.025.222l.016-.002c.396-.302 10.738-.536 11.342-.783.602-.251 14.363-.408 15.131-.584 1.539-.359 36.537-.404 38.501-.393.816.005 7.389.074 14.88.181-.059-.218-.115-.436-.176-.654z"/><path opacity=".843" d="M79.699 78.863c-7.952-.085-13.928-.136-14.624-.14-2.26-.01-59.401-.041-61.169.38-.883.21-1.682.737-2.373 1.03-.572.239-1.062.684-1.473 1.034.006.069.018.141.023.213l.018-.002c.455-.344 10.646-.619 11.336-.903.689-.288 14.252-.473 15.131-.677 1.756-.413 36.263-.484 38.504-.475.928.005 7.412.08 14.803.194-.061-.219-.115-.437-.176-.654z"/><path opacity=".824" d="M79.617 78.568c-7.844-.087-13.761-.143-14.545-.147-2.543-.013-58.664-.005-60.65.464-.992.235-1.895.792-2.673 1.119-.659.277-1.219.767-1.689 1.154.006.069.018.141.023.213l.02-.002c.513-.393 10.552-.708 11.326-1.028.776-.319 14.139-.539 15.128-.77 1.979-.462 35.99-.57 38.517-.56 1.038.007 7.429.085 14.72.209-.06-.218-.114-.435-.177-.652z"/><path opacity=".804" d="M79.529 78.275c-7.731-.095-13.589-.153-14.459-.159-2.82-.013-57.928.031-60.139.555-1.104.261-2.102.839-2.965 1.203-.744.314-1.383.845-1.909 1.278.007.064.019.136.026.202h.022c.568-.433 10.454-.794 11.317-1.148.861-.355 14.027-.606 15.131-.863 2.195-.514 35.715-.654 38.52-.639 1.146.007 7.448.089 14.64.219-.058-.216-.12-.431-.184-.648z"/><path opacity=".784" d="M79.439 77.979c-7.619-.1-13.414-.162-14.369-.166-3.105-.009-57.193.066-59.623.639-1.215.289-2.313.895-3.264 1.294-.834.353-1.545.928-2.126 1.398.005.064.016.131.024.2l.024-.002c.626-.477 10.365-.875 11.314-1.267.947-.391 13.916-.679 15.126-.957 2.415-.562 35.439-.739 38.526-.723 1.252.006 7.469.093 14.562.233-.06-.218-.129-.434-.194-.649z"/><path opacity=".765" d="M79.352 77.684c-7.5-.104-13.242-.168-14.281-.173-3.385-.014-56.461.099-59.111.731-1.322.313-2.523.941-3.56 1.376-.921.391-1.704 1.007-2.344 1.518.007.064.017.127.024.195l.029-.002c.681-.52 10.269-.956 11.301-1.387 1.035-.426 13.809-.744 15.129-1.05 2.635-.616 35.169-.819 38.531-.806 1.361.006 7.491.098 14.477.244l-.195-.646z"/><path opacity=".745" d="M79.26 77.387c-7.385-.106-13.068-.173-14.188-.178-3.668-.018-55.729.136-58.598.814-1.438.34-2.734.997-3.859 1.47-1.004.426-1.863 1.083-2.559 1.633l.022.193.033-.002c.741-.565 10.174-1.043 11.297-1.509 1.121-.461 13.693-.811 15.122-1.145 2.852-.664 34.897-.906 38.542-.888 1.459.007 7.502.102 14.383.255a92.684 92.684 0 0 0-.195-.643z"/><path opacity=".726" d="M79.174 77.095c-7.275-.112-12.898-.181-14.102-.188-3.953-.019-54.993.168-58.085.901-1.55.364-2.943 1.045-4.155 1.556-1.096.46-2.026 1.16-2.779 1.749l.025.192.035-.002c.795-.61 10.079-1.131 11.289-1.627 1.205-.5 13.583-.883 15.117-1.241 3.078-.715 34.631-.988 38.553-.968 1.561.009 7.514.104 14.295.265l-.193-.637z"/><path opacity=".706" d="M79.085 76.801c-7.169-.118-12.726-.189-14.015-.195-4.234-.022-54.259.197-57.572.984-1.652.396-3.15 1.101-4.453 1.646-1.178.498-2.18 1.239-2.992 1.869.008.064.014.124.023.189l.039-.001c.853-.653 9.988-1.214 11.277-1.751 1.297-.535 13.477-.949 15.12-1.332 3.298-.769 34.354-1.074 38.56-1.052 1.66.009 7.525.111 14.203.277-.064-.211-.124-.423-.19-.634z"/><path opacity=".686" d="M78.987 76.503c-7.054-.122-12.548-.195-13.917-.202-4.514-.022-53.526.24-57.058 1.073-1.765.42-3.367 1.153-4.745 1.732C1.996 79.641.92 80.42.048 81.095c.012.062.016.122.024.184h.042c.908-.695 9.895-1.301 11.274-1.87 1.378-.57 13.359-1.017 15.117-1.426 3.514-.817 34.084-1.154 38.566-1.134 1.756.009 7.538.113 14.112.286-.063-.21-.127-.421-.196-.632z"/><path opacity=".667" d="M78.89 76.207c-6.938-.126-12.368-.201-13.821-.21-4.797-.018-52.787.273-56.543 1.162-1.875.443-3.576 1.204-5.041 1.821-1.36.57-2.508 1.386-3.436 2.104.009.064.014.122.021.182h.047c.964-.737 9.797-1.383 11.265-1.99 1.463-.604 13.249-1.083 15.117-1.519 3.735-.87 33.809-1.238 38.571-1.219 1.854.009 7.549.117 14.023.298-.064-.21-.135-.42-.203-.629z"/><path opacity=".647" d="M78.794 75.913c-6.827-.131-12.194-.21-13.726-.218-5.08-.024-52.055.309-56.028 1.249-1.989.469-3.784 1.254-5.34 1.907-1.447.609-2.671 1.467-3.653 2.226.011.058.016.116.023.175l.047.003c1.022-.781 9.709-1.468 11.262-2.11 1.55-.641 13.137-1.154 15.111-1.615 3.957-.919 33.537-1.32 38.58-1.298 1.944.01 7.556.12 13.928.304-.066-.207-.135-.414-.204-.623z"/><path opacity=".627" d="M78.696 75.617c-6.714-.136-12.019-.216-13.63-.224-5.36-.023-51.318.342-55.512 1.333-2.102.496-3.999 1.308-5.642 1.998-1.526.644-2.825 1.538-3.866 2.339.009.062.014.12.021.175l.051.003c1.077-.827 9.615-1.556 11.252-2.234 1.638-.673 13.026-1.217 15.113-1.703 4.172-.972 33.262-1.407 38.584-1.383 2.035.01 7.562.122 13.832.314a27.862 27.862 0 0 0-.203-.618z"/><path opacity=".608" d="M78.599 75.322c-6.601-.139-11.839-.222-13.53-.23-5.648-.023-50.586.376-55.005 1.422-2.208.522-4.204 1.357-5.931 2.085-1.62.677-2.99 1.613-4.088 2.457.011.058.016.115.02.171l.055.002c1.137-.868 9.521-1.637 11.245-2.347 1.722-.716 12.917-1.293 15.112-1.801 4.392-1.026 32.992-1.492 38.592-1.47 2.127.011 7.566.129 13.732.323-.067-.204-.133-.409-.202-.612z"/><path opacity=".588" d="M78.501 75.025c-6.492-.143-11.661-.228-13.431-.235-5.931-.029-49.855.406-54.492 1.506-2.319.55-4.414 1.409-6.229 2.173-1.709.718-3.148 1.684-4.308 2.576.011.058.019.115.021.173h.06c1.189-.913 9.429-1.722 11.235-2.469 1.809-.75 12.807-1.36 15.111-1.896 4.611-1.076 32.718-1.576 38.6-1.553 2.211.012 7.568.131 13.633.333-.066-.202-.131-.406-.2-.608z"/><path opacity=".569" d="M78.401 74.728c-6.38-.146-11.486-.232-13.333-.24-6.211-.029-49.119.444-53.975 1.591-2.431.575-4.629 1.463-6.528 2.26-1.793.757-3.311 1.765-4.523 2.694.007.058.016.116.021.171h.06c1.247-.957 9.335-1.807 11.231-2.591 1.894-.782 12.693-1.428 15.107-1.986 4.83-1.129 32.445-1.66 38.607-1.632 2.295.012 7.573.132 13.535.337-.069-.203-.133-.405-.202-.604z"/><path opacity=".549" d="M78.299 74.433c-6.266-.151-11.309-.239-13.23-.247-6.492-.031-48.384.475-53.458 1.68-2.546.602-4.841 1.512-6.825 2.346-1.882.793-3.476 1.835-4.743 2.812l.021.167h.06c1.309-.999 9.24-1.889 11.224-2.709 1.98-.82 12.583-1.495 15.107-2.082 5.051-1.177 32.172-1.746 38.615-1.717 2.373.014 7.573.136 13.436.344-.069-.197-.141-.396-.207-.594z"/><path opacity=".529" d="M78.195 74.135c-6.148-.156-11.132-.246-13.129-.255-6.776-.03-47.647.517-52.945 1.767-2.65.63-5.05 1.567-7.125 2.438-1.965.83-3.629 1.91-4.959 2.929.01.056.019.113.023.169h.065c1.364-1.045 9.146-1.981 11.213-2.834 2.07-.854 12.474-1.562 15.107-2.176 5.274-1.229 31.898-1.823 38.623-1.794 2.457.013 7.575.138 13.333.351-.067-.2-.137-.398-.206-.595z"/><path opacity=".51" d="M78.09 73.84c-6.037-.158-10.951-.251-13.023-.262-7.057-.031-46.912.549-52.436 1.855-2.761.655-5.256 1.613-7.417 2.523-2.056.863-3.789 1.98-5.177 3.045.01.058.016.111.023.166h.067c1.42-1.088 9.053-2.064 11.206-2.954 2.153-.888 12.36-1.632 15.104-2.271 5.49-1.275 31.623-1.909 38.629-1.877 2.534.013 7.572.14 13.229.356-.066-.193-.136-.388-.205-.581z"/><path opacity=".49" d="M77.988 73.543c-5.926-.161-10.775-.255-12.924-.267-7.338-.033-46.176.583-51.918 1.94-2.87.686-5.467 1.67-7.717 2.615-2.143.9-3.949 2.053-5.393 3.163.008.053.012.106.023.162h.067c1.48-1.129 8.957-2.146 11.201-3.072 2.238-.925 12.248-1.701 15.107-2.366 5.71-1.331 31.344-1.995 38.631-1.958 2.607.014 7.568.139 13.121.36a48.82 48.82 0 0 0-.198-.577z"/><path opacity=".471" d="M77.884 73.246c-5.811-.166-10.599-.261-12.817-.272-7.62-.038-45.443.615-51.407 2.029-2.981.704-5.678 1.719-8.011 2.701A25.317 25.317 0 0 0 .036 80.98c.01.053.014.106.022.164l.071-.002c1.531-1.172 8.869-2.232 11.193-3.194 2.326-.963 12.137-1.766 15.101-2.457 5.928-1.383 31.076-2.078 38.643-2.042 2.676.013 7.564.142 13.016.364l-.198-.567z"/><path opacity=".451" d="M77.779 72.948c-5.699-.169-10.425-.267-12.715-.278-7.902-.035-44.709.653-50.891 2.115-3.094.732-5.891 1.769-8.312 2.792a26.524 26.524 0 0 0-5.828 3.389c.009.058.014.111.023.164l.073-.002c1.592-1.213 8.772-2.317 11.187-3.314 2.413-.998 12.023-1.832 15.1-2.548 6.152-1.436 30.808-2.163 38.653-2.128 2.746.013 7.555.144 12.906.368-.067-.186-.129-.372-.196-.558z"/><path opacity=".431" d="M77.671 72.648c-5.582-.171-10.245-.271-12.604-.282-8.186-.037-43.977.69-50.382 2.206-3.2.757-6.095 1.818-8.601 2.876a27.32 27.32 0 0 0-6.051 3.505c.007.058.012.111.02.167l.078-.002c1.649-1.261 8.676-2.404 11.178-3.434 2.499-1.031 11.914-1.904 15.098-2.646 6.372-1.483 30.534-2.247 38.66-2.211 2.81.016 7.551.149 12.803.377-.068-.185-.133-.371-.199-.556z"/><path opacity=".412" d="M77.562 72.352c-5.469-.174-10.068-.275-12.496-.288-8.471-.039-43.242.724-49.869 2.291-3.312.783-6.309 1.872-8.899 2.962A28.579 28.579 0 0 0 .03 80.945c.006.053.014.106.022.162l.08-.002c1.707-1.305 8.586-2.488 11.172-3.556 2.581-1.065 11.801-1.969 15.095-2.737 6.59-1.534 30.264-2.328 38.667-2.29 2.871.016 7.541.148 12.695.377l-.199-.547z"/><path opacity=".392" d="M77.453 72.053c-5.357-.178-9.896-.279-12.389-.291-8.75-.04-42.505.758-49.354 2.377-3.421.81-6.515 1.926-9.196 3.049A29.627 29.627 0 0 0 .031 80.93c.006.053.009.109.018.162l.084-.002c1.763-1.351 8.494-2.57 11.167-3.676 2.67-1.1 11.689-2.038 15.095-2.83 6.808-1.586 29.988-2.415 38.67-2.375 2.934.016 7.53.151 12.584.381l-.196-.537z"/><path opacity=".372" d="M77.345 71.756c-5.243-.178-9.724-.282-12.28-.295-9.034-.044-41.768.788-48.838 2.464-3.533.834-6.729 1.973-9.494 3.138-2.664 1.122-4.922 2.49-6.703 3.86.008.053.013.102.018.16l.088-.002c1.82-1.392 8.394-2.653 11.158-3.794 2.754-1.143 11.575-2.108 15.094-2.927 7.031-1.641 29.713-2.498 38.678-2.455 2.991.016 7.518.15 12.473.381l-.194-.53z"/><path opacity=".353" d="M77.236 71.457c-5.135-.182-9.553-.287-12.172-.301-9.317-.042-41.037.826-48.322 2.553-3.646.861-6.943 2.027-9.793 3.226-2.752 1.156-5.085 2.56-6.922 3.976.008.051.01.104.02.158H.14c1.874-1.439 8.302-2.743 11.145-3.917 2.843-1.175 11.468-2.175 15.093-3.019 7.249-1.69 29.44-2.582 38.689-2.539 3.043.016 7.502.149 12.357.382-.062-.174-.123-.346-.188-.519z"/><path opacity=".333" d="M77.127 71.159c-5.022-.184-9.377-.291-12.062-.304-9.596-.044-40.303.859-47.812 2.639-3.755.888-7.148 2.079-10.085 3.312-2.841 1.195-5.245 2.635-7.14 4.095.006.053.01.102.018.155l.093-.003c1.933-1.478 8.21-2.823 11.142-4.035 2.93-1.208 11.356-2.244 15.092-3.112 7.469-1.74 29.168-2.667 38.693-2.621 3.094.016 7.486.15 12.249.382l-.188-.508z"/><path opacity=".314" d="M77.016 70.859c-4.914-.187-9.206-.295-11.954-.309-9.877-.044-39.565.897-47.296 2.726a65.505 65.505 0 0 0-10.383 3.405c-2.926 1.232-5.402 2.706-7.358 4.208.009.051.013.104.021.153l.094-.002c1.991-1.521 8.114-2.906 11.132-4.153 3.016-1.245 11.248-2.312 15.09-3.207 7.69-1.793 28.896-2.753 38.703-2.706 3.145.015 7.469.149 12.136.384l-.185-.499z"/><path opacity=".294" d="M76.905 70.56c-4.806-.189-9.038-.298-11.844-.311-10.161-.046-38.831.928-46.781 2.812a68.318 68.318 0 0 0-10.683 3.492C4.583 77.82 2.032 79.331.024 80.881l.018.151H.14c2.049-1.569 8.021-2.997 11.122-4.277 3.107-1.281 11.139-2.38 15.094-3.303 7.908-1.841 28.621-2.83 38.709-2.785 3.189.016 7.448.15 12.022.382l-.182-.489z"/><path opacity=".275" d="M76.794 70.261c-4.696-.19-8.869-.299-11.732-.314-10.445-.049-38.097.964-46.269 2.899a69.64 69.64 0 0 0-10.98 3.578C4.712 77.728 2.086 79.276.02 80.87c.012.051.014.098.02.151l.103-.002c2.101-1.61 7.93-3.081 11.119-4.397 3.187-1.316 11.022-2.451 15.089-3.394 8.126-1.896 28.349-2.918 38.711-2.87 3.231.016 7.427.148 11.91.382-.06-.161-.118-.321-.178-.479z"/><path opacity=".255" d="M76.684 69.962c-4.593-.192-8.703-.302-11.622-.317-10.725-.051-37.359.994-45.756 2.985a71.521 71.521 0 0 0-11.275 3.666C4.846 77.638 2.145 79.219.02 80.854c.01.055.012.101.018.152l.105-.002c2.159-1.653 7.837-3.163 11.113-4.517 3.273-1.352 10.913-2.517 15.084-3.489 8.35-1.942 28.074-3.001 38.722-2.95 3.27.016 7.404.151 11.795.383-.058-.156-.117-.312-.173-.469z"/><path opacity=".235" d="M76.57 69.662c-4.486-.192-8.535-.303-11.506-.319-11.012-.053-36.63 1.03-45.244 3.072a73.39 73.39 0 0 0-11.572 3.756c-3.278 1.373-6.051 2.995-8.229 4.67.008.055.012.104.018.152l.107-.002c2.219-1.696 7.742-3.245 11.104-4.634 3.361-1.39 10.801-2.587 15.082-3.584 8.57-1.998 27.807-3.086 38.731-3.034 3.308.016 7.378.149 11.679.379-.056-.152-.112-.305-.17-.456z"/><path opacity=".216" d="M76.459 69.36c-4.381-.194-8.372-.305-11.397-.319-11.288-.057-35.895 1.065-44.73 3.157-4.419 1.047-8.409 2.385-11.868 3.839-3.357 1.419-6.208 3.073-8.443 4.796.008.052.012.098.016.147l.111-.001c2.273-1.739 7.648-3.331 11.096-4.758 3.444-1.422 10.689-2.654 15.082-3.675 8.787-2.044 27.531-3.167 38.737-3.116 3.339.017 7.349.148 11.563.375l-.167-.445z"/><path opacity=".196" d="M76.346 69.06c-4.277-.194-8.21-.306-11.286-.32-11.573-.057-35.157 1.099-44.216 3.243-4.527 1.072-8.623 2.437-12.163 3.931-3.451 1.45-6.37 3.141-8.663 4.911.007.05.01.097.018.146l.113.002c2.326-1.789 7.553-3.421 11.092-4.88 3.526-1.461 10.574-2.723 15.077-3.773 9.009-2.096 27.256-3.252 38.744-3.196 3.367.018 7.322.151 11.448.379-.053-.149-.109-.297-.164-.443z"/><path opacity=".176" d="M76.232 68.757c-4.175-.195-8.048-.306-11.173-.322-11.853-.058-34.423 1.138-43.705 3.332-4.635 1.099-8.825 2.491-12.461 4.019-3.533 1.489-6.525 3.215-8.878 5.025l.018.147.115-.001c2.389-1.827 7.46-3.504 11.078-4.997 3.62-1.501 10.47-2.792 15.082-3.866 9.227-2.149 26.984-3.337 38.753-3.283 3.392.018 7.289.149 11.333.377a18.874 18.874 0 0 0-.162-.431z"/><path opacity=".157" d="M76.119 68.455c-4.072-.196-7.889-.309-11.059-.324-12.137-.058-33.688 1.172-43.188 3.416-4.747 1.126-9.045 2.544-12.756 4.106-3.624 1.529-6.693 3.289-9.1 5.147.004.051.009.096.016.145l.117-.001c2.446-1.872 7.369-3.588 11.074-5.122 3.708-1.529 10.36-2.854 15.081-3.955 9.442-2.204 26.71-3.422 38.756-3.367 3.418.017 7.255.146 11.216.371-.052-.14-.103-.278-.157-.416z"/><path opacity=".137" d="M76.011 68.16c-3.976-.198-7.737-.314-10.951-.331-12.419-.058-32.954 1.203-42.673 3.505-4.859 1.152-9.256 2.592-13.056 4.195-3.714 1.56-6.856 3.356-9.317 5.26 0 .002.002.003.002.008.004.044.009.09.016.134l.122-.001c2.497-1.916 7.271-3.672 11.066-5.239 3.786-1.566 10.241-2.928 15.075-4.053 9.664-2.251 26.436-3.504 38.765-3.445 3.438.018 7.222.146 11.103.37-.053-.134-.101-.268-.152-.403z"/><path opacity=".118" d="M75.897 67.858c-3.876-.198-7.587-.315-10.838-.331-12.702-.062-32.22 1.241-42.161 3.591-4.969 1.176-9.461 2.644-13.351 4.28C5.746 77 2.533 78.833.012 80.777c.002.004.002.011.004.019l.014.124.124-.002c2.56-1.958 7.178-3.759 11.061-5.359 3.876-1.607 10.129-2.997 15.071-4.146 9.888-2.306 26.166-3.593 38.774-3.529 3.451.017 7.184.147 10.984.367l-.147-.393z"/><path opacity=".098" d="M75.787 67.559c-3.78-.2-7.434-.32-10.728-.336-12.984-.063-31.484 1.276-41.646 3.683-5.08 1.198-9.676 2.695-13.65 4.366-3.889 1.638-7.174 3.507-9.752 5.497 0 .009.002.018.004.028.004.036.004.072.012.108l.128-.002c2.61-1.999 7.085-3.842 11.052-5.476 3.961-1.638 10.023-3.063 15.07-4.242 10.108-2.35 25.895-3.671 38.782-3.609 3.469.018 7.149.146 10.869.364a35.99 35.99 0 0 1-.141-.381z"/><path opacity=".078" d="M75.674 67.259c-3.683-.2-7.285-.322-10.614-.337-13.267-.063-30.755 1.312-41.136 3.767-5.191 1.232-9.883 2.746-13.945 4.457-3.971 1.673-7.338 3.576-9.97 5.611a.5.5 0 0 1 .007.041c.004.033.004.062.012.097l.128-.001c2.673-2.045 6.994-3.928 11.044-5.599 4.051-1.674 9.911-3.129 15.076-4.333 10.322-2.407 25.617-3.76 38.784-3.695 3.487.018 7.118.177 10.765.396-.052-.136-.1-.269-.151-.404z"/><path opacity=".059" d="M75.562 66.957c-3.59-.201-7.137-.323-10.503-.34-13.548-.064-30.018 1.346-40.62 3.855-5.305 1.254-10.095 2.798-14.245 4.548-4.059 1.705-7.497 3.645-10.188 5.727 0 .018.007.031.009.05a.99.99 0 0 0 .009.085l.134-.001c2.727-2.09 6.896-4.014 11.033-5.721 4.137-1.711 9.803-3.199 15.074-4.428 10.543-2.455 25.346-3.84 38.791-3.773 3.501.018 7.078.184 10.656.404-.05-.135-.099-.271-.15-.406z"/><path opacity=".039" d="M75.467 66.697c-3.504-.209-7.002-.365-10.41-.382-13.83-.062-29.284 1.378-40.104 3.942-5.409 1.281-10.308 2.851-14.54 4.635-4.15 1.742-7.658 3.719-10.408 5.844.003.02.005.04.012.061l.006.072.139-.001c2.783-2.132 6.807-4.098 11.029-5.841 4.217-1.745 9.683-3.267 15.068-4.521 10.76-2.508 25.076-3.925 38.802-3.857 3.509.018 7.029.181 10.536.398-.046-.117-.087-.233-.13-.35z"/><path opacity=".02" d="M75.355 66.396c-3.42-.21-6.855-.367-10.301-.383-14.109-.069-28.547 1.412-39.588 4.026-5.519 1.308-10.512 2.903-14.838 4.721C6.39 76.545 2.807 78.554.001 80.724c.005.024.007.049.014.072l.004.058.141.002c2.841-2.176 6.711-4.181 11.02-5.963 4.31-1.778 9.578-3.333 15.073-4.614 10.979-2.559 24.799-4.006 38.804-3.942 3.516.018 6.985.18 10.424.395a16.67 16.67 0 0 1-.126-.336z"/></g><path fill="#999" d="M80.33 81.311l-60.578-.295.002.342 60.654.295-.078-.342z"/><path fill="#3064DC" d="M179.42 36.056H46.17c33.5-.18 33.947 60.188 33.988 84.063.015 9.73-.109 3.278-.183 64.881l69.29 55.16L212.303 185c-.116-23.218.453-57.36 0-68.097-3.032-71.847-32.883-80.847-32.883-80.847z"/><linearGradient id="b" gradientUnits="userSpaceOnUse" x1="129.297" y1="240.16" x2="129.297" y2="36.056"><stop offset="0" stop-color="#fff"/><stop offset=".13" stop-color="#f3f3f3"/><stop offset=".309" stop-color="#e6e6e6"/><stop offset=".468" stop-color="#f7f7f7"/><stop offset=".594" stop-color="#fff"/><stop offset=".769" stop-color="#fdfdfd"/><stop offset=".855" stop-color="#f5f5f5"/><stop offset=".922" stop-color="#e8e8e8"/><stop offset=".978" stop-color="#d6d6d6"/><stop offset="1" stop-color="#ccc"/></linearGradient><path fill="url(#b)" d="M179.42 36.056H46.17c33.5-.18 33.947 60.188 33.988 84.063.015 9.73-.109 3.278-.183 64.881l69.29 55.16L212.303 185c.057-19.911.229-57.353.02-68.974-1.232-68.095-32.903-79.97-32.903-79.97z"/></svg>