<?xml version="1.0" encoding="utf-8"?>
<!-- Generator: Adobe Illustrator 17.0.0, SVG Export Plug-In . SVG Version: 6.00 Build 0)  -->
<!DOCTYPE svg PUBLIC "-//W3C//DTD SVG 1.1//EN" "http://www.w3.org/Graphics/SVG/1.1/DTD/svg11.dtd">
<svg version="1.1" id="Isolation_Mode" xmlns="http://www.w3.org/2000/svg" xmlns:xlink="http://www.w3.org/1999/xlink" x="0px"
	 y="0px" width="245.596px" height="277px" viewBox="0 0 245.596 277" enable-background="new 0 0 245.596 277"
	 xml:space="preserve">
<g>
	<g opacity="0.4706">
		<image overflow="visible" width="239" height="277" xlink:href="60D4D6A47CFE6FB8.png"  transform="matrix(1 0 0 1 6.5957 0)">
		</image>
	</g>
	<path fill="#3064DC" d="M47.003,36.054l133.029,1.536c0,0-14.095-6.91-43.169,43.954H9.996
		C9.996,81.544,16.387,37.821,47.003,36.054z"/>
	<linearGradient id="SVGID_1_" gradientUnits="userSpaceOnUse" x1="10.9794" y1="84.5697" x2="177.6961" y2="30.4001">
		<stop  offset="0" style="stop-color:#FFFFFF"/>
		<stop  offset="0.0732" style="stop-color:#FCFCFC"/>
		<stop  offset="0.1363" style="stop-color:#F1F1F1"/>
		<stop  offset="0.1956" style="stop-color:#DFDFDF"/>
		<stop  offset="0.2526" style="stop-color:#C6C6C6"/>
		<stop  offset="0.3075" style="stop-color:#A6A6A6"/>
		<stop  offset="0.3273" style="stop-color:#999999"/>
	</linearGradient>
	<path fill="url(#SVGID_1_)" d="M47.003,36.054l133.029,1.536c0,0-14.095-6.91-43.169,43.954H9.996
		C9.996,81.544,16.387,37.821,47.003,36.054z"/>
	<g>
		<g>
			<g>
				<path fill="#999999" d="M80.308,81.219l-80.29-0.391c0.033,0.223,0.06,0.436,0.084,0.651l80.357,0.392
					C80.41,81.653,80.359,81.435,80.308,81.219z"/>
				<path opacity="0.9804" fill="#999999" d="M80.238,80.922c-8.7-0.046-15.079-0.082-15.163-0.082
					c-0.282,0-64.54-0.282-64.761-0.231C0.213,80.634,0.122,80.92,0.037,81c0.023,0.158,0.045,0.313,0.062,0.466
					c0.127-0.044,11.293-0.027,11.38-0.064c0.087-0.033,15.03,0.007,15.142-0.02c0.22-0.049,38.174,0.102,38.456,0.102
					c0.12,0.002,7.237,0.043,15.312,0.093C80.341,81.358,80.292,81.14,80.238,80.922z"/>
				<path opacity="0.9608" fill="#999999" d="M80.172,80.629c-8.598-0.053-14.92-0.09-15.097-0.091
					c-0.566-0.002-63.808-0.247-64.249-0.141c-0.221,0.052-0.42,0.427-0.594,0.503c-0.064,0.023-0.123,0.102-0.184,0.191
					c0.016,0.117,0.035,0.244,0.047,0.362c0.131-0.084,11.206-0.116,11.377-0.182c0.174-0.073,14.922-0.064,15.14-0.113
					c0.44-0.103,37.903,0.018,38.463,0.02c0.239,0.002,7.267,0.048,15.248,0.107C80.271,81.067,80.226,80.847,80.172,80.629z"/>
				<path opacity="0.9412" fill="#999999" d="M80.097,80.336c-8.494-0.059-14.758-0.098-15.024-0.1
					c-0.85-0.004-63.068-0.214-63.734-0.055c-0.33,0.079-0.627,0.478-0.89,0.589c-0.143,0.062-0.272,0.222-0.391,0.378
					c0.013,0.095,0.026,0.195,0.033,0.293l0.005,0.002c0.168-0.131,11.115-0.202,11.371-0.306c0.26-0.109,14.809-0.131,15.137-0.209
					c0.659-0.151,37.631-0.067,38.472-0.062c0.356,0.002,7.296,0.054,15.179,0.122C80.201,80.771,80.15,80.554,80.097,80.336z"/>
				<path opacity="0.9216" fill="#999999" d="M80.018,80.041c-8.384-0.062-14.592-0.104-14.942-0.106
					c-1.13-0.004-62.337-0.18-63.224,0.029c-0.439,0.104-0.838,0.533-1.184,0.678c-0.23,0.098-0.431,0.33-0.607,0.529
					c0.01,0.082,0.023,0.173,0.03,0.26h0.007c0.228-0.174,11.017-0.282,11.364-0.428c0.344-0.142,14.695-0.199,15.133-0.3
					c0.881-0.204,37.356-0.146,38.48-0.142c0.475,0.003,7.322,0.058,15.112,0.135C80.133,80.478,80.072,80.26,80.018,80.041z"/>
				<path opacity="0.902" fill="#999999" d="M79.938,79.747c-8.277-0.069-14.426-0.114-14.862-0.116
					c-1.412-0.005-61.602-0.142-62.709,0.117c-0.551,0.131-1.05,0.584-1.483,0.766c-0.311,0.131-0.586,0.424-0.822,0.659
					c0.01,0.08,0.021,0.162,0.03,0.246L0.1,81.418c0.284-0.218,10.925-0.369,11.357-0.544c0.429-0.183,14.582-0.271,15.135-0.397
					c1.098-0.257,37.08-0.23,38.483-0.226c0.586,0.002,7.347,0.063,15.037,0.151C80.057,80.183,79.994,79.965,79.938,79.747z"/>
				<path opacity="0.8824" fill="#999999" d="M79.857,79.453c-8.168-0.074-14.256-0.122-14.785-0.126
					c-1.693-0.004-60.869-0.108-62.191,0.207c-0.664,0.157-1.261,0.635-1.779,0.854c-0.402,0.165-0.746,0.51-1.041,0.786
					c0.01,0.075,0.02,0.157,0.03,0.233L0.1,81.404c0.34-0.261,10.834-0.45,11.352-0.666c0.517-0.213,14.471-0.336,15.131-0.488
					c1.32-0.307,36.811-0.315,38.493-0.311c0.706,0.006,7.371,0.071,14.96,0.169C79.977,79.888,79.917,79.67,79.857,79.453z"/>
				<path opacity="0.8627" fill="#999999" d="M79.779,79.158c-8.061-0.079-14.096-0.128-14.704-0.133
					c-1.979-0.01-60.137-0.071-61.684,0.293c-0.773,0.182-1.472,0.686-2.077,0.943c-0.483,0.201-0.901,0.6-1.254,0.91
					c0.008,0.073,0.02,0.151,0.025,0.222l0.016-0.002c0.396-0.302,10.738-0.536,11.342-0.783c0.602-0.251,14.363-0.408,15.131-0.584
					c1.539-0.359,36.537-0.404,38.501-0.393c0.816,0.005,7.389,0.074,14.88,0.181C79.896,79.594,79.84,79.376,79.779,79.158z"/>
				<path opacity="0.8431" fill="#999999" d="M79.699,78.863c-7.952-0.085-13.928-0.136-14.624-0.14
					c-2.26-0.01-59.401-0.041-61.169,0.38c-0.883,0.21-1.682,0.737-2.373,1.03c-0.572,0.239-1.062,0.684-1.473,1.034
					c0.006,0.069,0.018,0.141,0.023,0.213l0.018-0.002c0.455-0.344,10.646-0.619,11.336-0.903
					c0.689-0.288,14.252-0.473,15.131-0.677c1.756-0.413,36.263-0.484,38.504-0.475c0.928,0.005,7.412,0.08,14.803,0.194
					C79.814,79.298,79.76,79.08,79.699,78.863z"/>
				<path opacity="0.8235" fill="#999999" d="M79.617,78.568c-7.844-0.087-13.761-0.143-14.545-0.147
					c-2.543-0.013-58.664-0.005-60.65,0.464c-0.992,0.235-1.895,0.792-2.673,1.119C1.09,80.281,0.53,80.771,0.06,81.158
					c0.006,0.069,0.018,0.141,0.023,0.213l0.02-0.002c0.513-0.393,10.552-0.708,11.326-1.028c0.776-0.319,14.139-0.539,15.128-0.77
					c1.979-0.462,35.99-0.57,38.517-0.56c1.038,0.007,7.429,0.085,14.72,0.209C79.734,79.002,79.68,78.785,79.617,78.568z"/>
				<path opacity="0.8039" fill="#999999" d="M79.529,78.275c-7.731-0.095-13.589-0.153-14.459-0.159
					c-2.82-0.013-57.928,0.031-60.139,0.555c-1.104,0.261-2.102,0.839-2.965,1.203c-0.744,0.314-1.383,0.845-1.909,1.278
					c0.007,0.064,0.019,0.136,0.026,0.202h0.022c0.568-0.433,10.454-0.794,11.317-1.148c0.861-0.355,14.027-0.606,15.131-0.863
					c2.195-0.514,35.715-0.654,38.52-0.639c1.146,0.007,7.448,0.089,14.64,0.219C79.655,78.707,79.593,78.492,79.529,78.275z"/>
				<path opacity="0.7843" fill="#999999" d="M79.439,77.979c-7.619-0.1-13.414-0.162-14.369-0.166
					c-3.105-0.009-57.193,0.066-59.623,0.639c-1.215,0.289-2.313,0.895-3.264,1.294c-0.834,0.353-1.545,0.928-2.126,1.398
					c0.005,0.064,0.016,0.131,0.024,0.2l0.024-0.002c0.626-0.477,10.365-0.875,11.314-1.267c0.947-0.391,13.916-0.679,15.126-0.957
					c2.415-0.562,35.439-0.739,38.526-0.723c1.252,0.006,7.469,0.093,14.562,0.233C79.573,78.41,79.504,78.194,79.439,77.979z"/>
				<path opacity="0.7647" fill="#999999" d="M79.352,77.684c-7.5-0.104-13.242-0.168-14.281-0.173
					c-3.385-0.014-56.461,0.099-59.111,0.731c-1.322,0.313-2.523,0.941-3.56,1.376c-0.921,0.391-1.704,1.007-2.344,1.518
					c0.007,0.064,0.017,0.127,0.024,0.195l0.029-0.002c0.681-0.52,10.269-0.956,11.301-1.387c1.035-0.426,13.809-0.744,15.129-1.05
					c2.635-0.616,35.169-0.819,38.531-0.806c1.361,0.006,7.491,0.098,14.477,0.244C79.482,78.115,79.416,77.899,79.352,77.684z"/>
				<path opacity="0.7451" fill="#999999" d="M79.26,77.387c-7.385-0.106-13.068-0.173-14.188-0.178
					c-3.668-0.018-55.729,0.136-58.598,0.814c-1.438,0.34-2.734,0.997-3.859,1.47c-1.004,0.426-1.863,1.083-2.559,1.633
					c0.007,0.062,0.015,0.126,0.022,0.193l0.033-0.002c0.741-0.565,10.174-1.043,11.297-1.509
					c1.121-0.461,13.693-0.811,15.122-1.145c2.852-0.664,34.897-0.906,38.542-0.888c1.459,0.007,7.502,0.102,14.383,0.255
					C79.391,77.816,79.326,77.602,79.26,77.387z"/>
				<path opacity="0.7255" fill="#999999" d="M79.174,77.095c-7.275-0.112-12.898-0.181-14.102-0.188
					c-3.953-0.019-54.993,0.168-58.085,0.901c-1.55,0.364-2.943,1.045-4.155,1.556c-1.096,0.46-2.026,1.16-2.779,1.749
					c0.008,0.066,0.016,0.126,0.025,0.192l0.035-0.002c0.795-0.61,10.079-1.131,11.289-1.627c1.205-0.5,13.583-0.883,15.117-1.241
					c3.078-0.715,34.631-0.988,38.553-0.968c1.561,0.009,7.514,0.104,14.295,0.265C79.303,77.521,79.238,77.308,79.174,77.095z"/>
				<path opacity="0.7059" fill="#999999" d="M79.085,76.801c-7.169-0.118-12.726-0.189-14.015-0.195
					c-4.234-0.022-54.259,0.197-57.572,0.984c-1.652,0.396-3.15,1.101-4.453,1.646c-1.178,0.498-2.18,1.239-2.992,1.869
					c0.008,0.064,0.014,0.124,0.023,0.189l0.039-0.001c0.853-0.653,9.988-1.214,11.277-1.751c1.297-0.535,13.477-0.949,15.12-1.332
					c3.298-0.769,34.354-1.074,38.56-1.052c1.66,0.009,7.525,0.111,14.203,0.277C79.211,77.224,79.151,77.012,79.085,76.801z"/>
				<path opacity="0.6863" fill="#999999" d="M78.987,76.503c-7.054-0.122-12.548-0.195-13.917-0.202
					c-4.514-0.022-53.526,0.24-57.058,1.073c-1.765,0.42-3.367,1.153-4.745,1.732c-1.271,0.535-2.347,1.314-3.219,1.989
					c0.012,0.062,0.016,0.122,0.024,0.184h0.042c0.908-0.695,9.895-1.301,11.274-1.87c1.378-0.57,13.359-1.017,15.117-1.426
					c3.514-0.817,34.084-1.154,38.566-1.134c1.756,0.009,7.538,0.113,14.112,0.286C79.12,76.925,79.056,76.714,78.987,76.503z"/>
				<path opacity="0.6667" fill="#999999" d="M78.89,76.207c-6.938-0.126-12.368-0.201-13.821-0.21
					c-4.797-0.018-52.787,0.273-56.543,1.162c-1.875,0.443-3.576,1.204-5.041,1.821c-1.36,0.57-2.508,1.386-3.436,2.104
					c0.009,0.064,0.014,0.122,0.021,0.182h0.047c0.964-0.737,9.797-1.383,11.265-1.99c1.463-0.604,13.249-1.083,15.117-1.519
					c3.735-0.87,33.809-1.238,38.571-1.219c1.854,0.009,7.549,0.117,14.023,0.298C79.029,76.626,78.958,76.416,78.89,76.207z"/>
				<path opacity="0.6471" fill="#999999" d="M78.794,75.913c-6.827-0.131-12.194-0.21-13.726-0.218
					c-5.08-0.024-52.055,0.309-56.028,1.249c-1.989,0.469-3.784,1.254-5.34,1.907c-1.447,0.609-2.671,1.467-3.653,2.226
					c0.011,0.058,0.016,0.116,0.023,0.175l0.047,0.003c1.022-0.781,9.709-1.468,11.262-2.11c1.55-0.641,13.137-1.154,15.111-1.615
					c3.957-0.919,33.537-1.32,38.58-1.298c1.944,0.01,7.556,0.12,13.928,0.304C78.932,76.329,78.863,76.122,78.794,75.913z"/>
				<path opacity="0.6275" fill="#999999" d="M78.696,75.617c-6.714-0.136-12.019-0.216-13.63-0.224
					c-5.36-0.023-51.318,0.342-55.512,1.333c-2.102,0.496-3.999,1.308-5.642,1.998c-1.526,0.644-2.825,1.538-3.866,2.339
					c0.009,0.062,0.014,0.12,0.021,0.175l0.051,0.003c1.077-0.827,9.615-1.556,11.252-2.234c1.638-0.673,13.026-1.217,15.113-1.703
					c4.172-0.972,33.262-1.407,38.584-1.383c2.035,0.01,7.562,0.122,13.832,0.314C78.834,76.028,78.766,75.823,78.696,75.617z"/>
				<path opacity="0.6078" fill="#999999" d="M78.599,75.322c-6.601-0.139-11.839-0.222-13.53-0.23
					c-5.648-0.023-50.586,0.376-55.005,1.422c-2.208,0.522-4.204,1.357-5.931,2.085c-1.62,0.677-2.99,1.613-4.088,2.457
					c0.011,0.058,0.016,0.115,0.02,0.171l0.055,0.002c1.137-0.868,9.521-1.637,11.245-2.347c1.722-0.716,12.917-1.293,15.112-1.801
					c4.392-1.026,32.992-1.492,38.592-1.47c2.127,0.011,7.566,0.129,13.732,0.323C78.734,75.73,78.668,75.525,78.599,75.322z"/>
				<path opacity="0.5882" fill="#999999" d="M78.501,75.025c-6.492-0.143-11.661-0.228-13.431-0.235
					c-5.931-0.029-49.855,0.406-54.492,1.506c-2.319,0.55-4.414,1.409-6.229,2.173c-1.709,0.718-3.148,1.684-4.308,2.576
					c0.011,0.058,0.019,0.115,0.021,0.173h0.06c1.189-0.913,9.429-1.722,11.235-2.469c1.809-0.75,12.807-1.36,15.111-1.896
					c4.611-1.076,32.718-1.576,38.6-1.553c2.211,0.012,7.568,0.131,13.633,0.333C78.635,75.431,78.57,75.227,78.501,75.025z"/>
				<path opacity="0.5686" fill="#999999" d="M78.401,74.728c-6.38-0.146-11.486-0.232-13.333-0.24
					c-6.211-0.029-49.119,0.444-53.975,1.591c-2.431,0.575-4.629,1.463-6.528,2.26c-1.793,0.757-3.311,1.765-4.523,2.694
					c0.007,0.058,0.016,0.116,0.021,0.171h0.06c1.247-0.957,9.335-1.807,11.231-2.591c1.894-0.782,12.693-1.428,15.107-1.986
					c4.83-1.129,32.445-1.66,38.607-1.632c2.295,0.012,7.573,0.132,13.535,0.337C78.534,75.129,78.47,74.927,78.401,74.728z"/>
				<path opacity="0.549" fill="#999999" d="M78.299,74.433c-6.266-0.151-11.309-0.239-13.23-0.247
					c-6.492-0.031-48.384,0.475-53.458,1.68c-2.546,0.602-4.841,1.512-6.825,2.346c-1.882,0.793-3.476,1.835-4.743,2.812
					c0.007,0.058,0.014,0.111,0.021,0.167h0.06c1.309-0.999,9.24-1.889,11.224-2.709c1.98-0.82,12.583-1.495,15.107-2.082
					c5.051-1.177,32.172-1.746,38.615-1.717c2.373,0.014,7.573,0.136,13.436,0.344C78.437,74.83,78.365,74.631,78.299,74.433z"/>
				<path opacity="0.5294" fill="#999999" d="M78.195,74.135c-6.148-0.156-11.132-0.246-13.129-0.255
					c-6.776-0.03-47.647,0.517-52.945,1.767c-2.65,0.63-5.05,1.567-7.125,2.438c-1.965,0.83-3.629,1.91-4.959,2.929
					c0.01,0.056,0.019,0.113,0.023,0.169h0.065c1.364-1.045,9.146-1.981,11.213-2.834c2.07-0.854,12.474-1.562,15.107-2.176
					c5.274-1.229,31.898-1.823,38.623-1.794c2.457,0.013,7.575,0.138,13.333,0.351C78.334,74.53,78.264,74.332,78.195,74.135z"/>
				<path opacity="0.5098" fill="#999999" d="M78.09,73.84c-6.037-0.158-10.951-0.251-13.023-0.262
					c-7.057-0.031-46.912,0.549-52.436,1.855c-2.761,0.655-5.256,1.613-7.417,2.523c-2.056,0.863-3.789,1.98-5.177,3.045
					c0.01,0.058,0.016,0.111,0.023,0.166h0.067c1.42-1.088,9.053-2.064,11.206-2.954c2.153-0.888,12.36-1.632,15.104-2.271
					c5.49-1.275,31.623-1.909,38.629-1.877c2.534,0.013,7.572,0.14,13.229,0.356C78.229,74.228,78.159,74.033,78.09,73.84z"/>
				<path opacity="0.4902" fill="#999999" d="M77.988,73.543c-5.926-0.161-10.775-0.255-12.924-0.267
					c-7.338-0.033-46.176,0.583-51.918,1.94c-2.87,0.686-5.467,1.67-7.717,2.615c-2.143,0.9-3.949,2.053-5.393,3.163
					c0.008,0.053,0.012,0.106,0.023,0.162h0.067c1.48-1.129,8.957-2.146,11.201-3.072c2.238-0.925,12.248-1.701,15.107-2.366
					c5.71-1.331,31.344-1.995,38.631-1.958c2.607,0.014,7.568,0.139,13.121,0.36C78.121,73.926,78.055,73.735,77.988,73.543z"/>
				<path opacity="0.4706" fill="#999999" d="M77.884,73.246c-5.811-0.166-10.599-0.261-12.817-0.272
					c-7.62-0.038-45.443,0.615-51.407,2.029c-2.981,0.704-5.678,1.719-8.011,2.701c-2.228,0.935-4.117,2.124-5.613,3.276
					c0.01,0.053,0.014,0.106,0.022,0.164l0.071-0.002c1.531-1.172,8.869-2.232,11.193-3.194c2.326-0.963,12.137-1.766,15.101-2.457
					c5.928-1.383,31.076-2.078,38.643-2.042c2.676,0.013,7.564,0.142,13.016,0.364C78.016,73.624,77.951,73.436,77.884,73.246z"/>
				<path opacity="0.451" fill="#999999" d="M77.779,72.948c-5.699-0.169-10.425-0.267-12.715-0.278
					c-7.902-0.035-44.709,0.653-50.891,2.115c-3.094,0.732-5.891,1.769-8.312,2.792c-2.311,0.97-4.272,2.197-5.828,3.389
					c0.009,0.058,0.014,0.111,0.023,0.164l0.073-0.002c1.592-1.213,8.772-2.317,11.187-3.314c2.413-0.998,12.023-1.832,15.1-2.548
					c6.152-1.436,30.808-2.163,38.653-2.128c2.746,0.013,7.555,0.144,12.906,0.368C77.908,73.32,77.846,73.134,77.779,72.948z"/>
				<path opacity="0.4314" fill="#999999" d="M77.671,72.648c-5.582-0.171-10.245-0.271-12.604-0.282
					c-8.186-0.037-43.977,0.69-50.382,2.206c-3.2,0.757-6.095,1.818-8.601,2.876c-2.404,1.005-4.439,2.269-6.051,3.505
					c0.007,0.058,0.012,0.111,0.02,0.167l0.078-0.002c1.649-1.261,8.676-2.404,11.178-3.434c2.499-1.031,11.914-1.904,15.098-2.646
					c6.372-1.483,30.534-2.247,38.66-2.211c2.81,0.016,7.551,0.149,12.803,0.377C77.802,73.019,77.737,72.833,77.671,72.648z"/>
				<path opacity="0.4118" fill="#999999" d="M77.562,72.352c-5.469-0.174-10.068-0.275-12.496-0.288
					c-8.471-0.039-43.242,0.724-49.869,2.291c-3.312,0.783-6.309,1.872-8.899,2.962c-2.49,1.05-4.597,2.345-6.268,3.628
					c0.006,0.053,0.014,0.106,0.022,0.162l0.08-0.002c1.707-1.305,8.586-2.488,11.172-3.556c2.581-1.065,11.801-1.969,15.095-2.737
					c6.59-1.534,30.264-2.328,38.667-2.29c2.871,0.016,7.541,0.148,12.695,0.377C77.695,72.717,77.629,72.534,77.562,72.352z"/>
				<path opacity="0.3922" fill="#999999" d="M77.453,72.053c-5.357-0.178-9.896-0.279-12.389-0.291
					c-8.75-0.04-42.505,0.758-49.354,2.377c-3.421,0.81-6.515,1.926-9.196,3.049c-2.574,1.085-4.758,2.419-6.483,3.742
					c0.006,0.053,0.009,0.109,0.018,0.162l0.084-0.002c1.763-1.351,8.494-2.57,11.167-3.676c2.67-1.1,11.689-2.038,15.095-2.83
					c6.808-1.586,29.988-2.415,38.67-2.375c2.934,0.016,7.53,0.151,12.584,0.381C77.584,72.412,77.518,72.233,77.453,72.053z"/>
				<path opacity="0.3725" fill="#999999" d="M77.345,71.756c-5.243-0.178-9.724-0.282-12.28-0.295
					c-9.034-0.044-41.768,0.788-48.838,2.464c-3.533,0.834-6.729,1.973-9.494,3.138c-2.664,1.122-4.922,2.49-6.703,3.86
					c0.008,0.053,0.013,0.102,0.018,0.16l0.088-0.002c1.82-1.392,8.394-2.653,11.158-3.794c2.754-1.143,11.575-2.108,15.094-2.927
					c7.031-1.641,29.713-2.498,38.678-2.455c2.991,0.016,7.518,0.15,12.473,0.381C77.473,72.108,77.409,71.933,77.345,71.756z"/>
				<path opacity="0.3529" fill="#999999" d="M77.236,71.457c-5.135-0.182-9.553-0.287-12.172-0.301
					c-9.317-0.042-41.037,0.826-48.322,2.553c-3.646,0.861-6.943,2.027-9.793,3.226c-2.752,1.156-5.085,2.56-6.922,3.976
					c0.008,0.051,0.01,0.104,0.02,0.158H0.14c1.874-1.439,8.302-2.743,11.145-3.917c2.843-1.175,11.468-2.175,15.093-3.019
					c7.249-1.69,29.44-2.582,38.689-2.539c3.043,0.016,7.502,0.149,12.357,0.382C77.362,71.802,77.301,71.63,77.236,71.457z"/>
				<path opacity="0.3333" fill="#999999" d="M77.127,71.159c-5.022-0.184-9.377-0.291-12.062-0.304
					c-9.596-0.044-40.303,0.859-47.812,2.639c-3.755,0.888-7.148,2.079-10.085,3.312c-2.841,1.195-5.245,2.635-7.14,4.095
					c0.006,0.053,0.01,0.102,0.018,0.155l0.093-0.003c1.933-1.478,8.21-2.823,11.142-4.035c2.93-1.208,11.356-2.244,15.092-3.112
					c7.469-1.74,29.168-2.667,38.693-2.621c3.094,0.016,7.486,0.15,12.249,0.382C77.252,71.498,77.189,71.329,77.127,71.159z"/>
				<path opacity="0.3137" fill="#999999" d="M77.016,70.859c-4.914-0.187-9.206-0.295-11.954-0.309
					c-9.877-0.044-39.565,0.897-47.296,2.726c-3.865,0.913-7.36,2.129-10.383,3.405c-2.926,1.232-5.402,2.706-7.358,4.208
					c0.009,0.051,0.013,0.104,0.021,0.153L0.14,81.04c1.991-1.521,8.114-2.906,11.132-4.153c3.016-1.245,11.248-2.312,15.09-3.207
					c7.69-1.793,28.896-2.753,38.703-2.706c3.145,0.015,7.469,0.149,12.136,0.384C77.139,71.192,77.078,71.025,77.016,70.859z"/>
				<path opacity="0.2941" fill="#999999" d="M76.905,70.56c-4.806-0.189-9.038-0.298-11.844-0.311
					C54.9,70.203,26.23,71.177,18.28,73.061c-3.978,0.943-7.571,2.184-10.683,3.492c-3.014,1.267-5.565,2.778-7.573,4.328
					c0.007,0.051,0.011,0.1,0.018,0.151H0.14c2.049-1.569,8.021-2.997,11.122-4.277c3.107-1.281,11.139-2.38,15.094-3.303
					c7.908-1.841,28.621-2.83,38.709-2.785c3.189,0.016,7.448,0.15,12.022,0.382C77.027,70.886,76.965,70.723,76.905,70.56z"/>
				<path opacity="0.2745" fill="#999999" d="M76.794,70.261c-4.696-0.19-8.869-0.299-11.732-0.314
					c-10.445-0.049-38.097,0.964-46.269,2.899c-4.086,0.965-7.781,2.231-10.98,3.578c-3.101,1.304-5.727,2.852-7.793,4.446
					c0.012,0.051,0.014,0.098,0.02,0.151l0.103-0.002c2.101-1.61,7.93-3.081,11.119-4.397c3.187-1.316,11.022-2.451,15.089-3.394
					c8.126-1.896,28.349-2.918,38.711-2.87c3.231,0.016,7.427,0.148,11.91,0.382C76.912,70.579,76.854,70.419,76.794,70.261z"/>
				<path opacity="0.2549" fill="#999999" d="M76.684,69.962c-4.593-0.192-8.703-0.302-11.622-0.317
					c-10.725-0.051-37.359,0.994-45.756,2.985c-4.194,0.992-7.993,2.282-11.275,3.666c-3.185,1.342-5.886,2.923-8.011,4.558
					c0.01,0.055,0.012,0.101,0.018,0.152l0.105-0.002c2.159-1.653,7.837-3.163,11.113-4.517c3.273-1.352,10.913-2.517,15.084-3.489
					c8.35-1.942,28.074-3.001,38.722-2.95c3.27,0.016,7.404,0.151,11.795,0.383C76.799,70.275,76.74,70.119,76.684,69.962z"/>
				<path opacity="0.2353" fill="#999999" d="M76.57,69.662c-4.486-0.192-8.535-0.303-11.506-0.319
					c-11.012-0.053-36.63,1.03-45.244,3.072c-4.309,1.019-8.201,2.335-11.572,3.756c-3.278,1.373-6.051,2.995-8.229,4.67
					c0.008,0.055,0.012,0.104,0.018,0.152l0.107-0.002c2.219-1.696,7.742-3.245,11.104-4.634c3.361-1.39,10.801-2.587,15.082-3.584
					c8.57-1.998,27.807-3.086,38.731-3.034c3.308,0.016,7.378,0.149,11.679,0.379C76.684,69.966,76.628,69.813,76.57,69.662z"/>
				<path opacity="0.2157" fill="#999999" d="M76.459,69.36c-4.381-0.194-8.372-0.305-11.397-0.319
					c-11.288-0.057-35.895,1.065-44.73,3.157c-4.419,1.047-8.409,2.385-11.868,3.839c-3.357,1.419-6.208,3.073-8.443,4.796
					c0.008,0.052,0.012,0.098,0.016,0.147l0.111-0.001c2.273-1.739,7.648-3.331,11.096-4.758c3.444-1.422,10.689-2.654,15.082-3.675
					c8.787-2.044,27.531-3.167,38.737-3.116c3.339,0.017,7.349,0.148,11.563,0.375C76.57,69.656,76.515,69.508,76.459,69.36z"/>
				<path opacity="0.1961" fill="#999999" d="M76.346,69.06c-4.277-0.194-8.21-0.306-11.286-0.32
					c-11.573-0.057-35.157,1.099-44.216,3.243c-4.527,1.072-8.623,2.437-12.163,3.931c-3.451,1.45-6.37,3.141-8.663,4.911
					c0.007,0.05,0.01,0.097,0.018,0.146l0.113,0.002c2.326-1.789,7.553-3.421,11.092-4.88c3.526-1.461,10.574-2.723,15.077-3.773
					c9.009-2.096,27.256-3.252,38.744-3.196c3.367,0.018,7.322,0.151,11.448,0.379C76.457,69.354,76.401,69.206,76.346,69.06z"/>
				<path opacity="0.1765" fill="#999999" d="M76.232,68.757c-4.175-0.195-8.048-0.306-11.173-0.322
					c-11.853-0.058-34.423,1.138-43.705,3.332c-4.635,1.099-8.825,2.491-12.461,4.019c-3.533,1.489-6.525,3.215-8.878,5.025
					c0.006,0.05,0.012,0.099,0.018,0.147l0.115-0.001c2.389-1.827,7.46-3.504,11.078-4.997c3.62-1.501,10.47-2.792,15.082-3.866
					c9.227-2.149,26.984-3.337,38.753-3.283c3.392,0.018,7.289,0.149,11.333,0.377C76.342,69.045,76.288,68.9,76.232,68.757z"/>
				<path opacity="0.1569" fill="#999999" d="M76.119,68.455c-4.072-0.196-7.889-0.309-11.059-0.324
					c-12.137-0.058-33.688,1.172-43.188,3.416c-4.747,1.126-9.045,2.544-12.756,4.106c-3.624,1.529-6.693,3.289-9.1,5.147
					c0.004,0.051,0.009,0.096,0.016,0.145l0.117-0.001c2.446-1.872,7.369-3.588,11.074-5.122c3.708-1.529,10.36-2.854,15.081-3.955
					c9.442-2.204,26.71-3.422,38.756-3.367c3.418,0.017,7.255,0.146,11.216,0.371C76.224,68.731,76.173,68.593,76.119,68.455z"/>
				<path opacity="0.1373" fill="#999999" d="M76.011,68.16c-3.976-0.198-7.737-0.314-10.951-0.331
					c-12.419-0.058-32.954,1.203-42.673,3.505c-4.859,1.152-9.256,2.592-13.056,4.195c-3.714,1.56-6.856,3.356-9.317,5.26
					c0,0.002,0.002,0.003,0.002,0.008c0.004,0.044,0.009,0.09,0.016,0.134l0.122-0.001c2.497-1.916,7.271-3.672,11.066-5.239
					c3.786-1.566,10.241-2.928,15.075-4.053c9.664-2.251,26.436-3.504,38.765-3.445c3.438,0.018,7.222,0.146,11.103,0.37
					C76.11,68.429,76.062,68.295,76.011,68.16z"/>
				<path opacity="0.1176" fill="#999999" d="M75.897,67.858c-3.876-0.198-7.587-0.315-10.838-0.331
					c-12.702-0.062-32.22,1.241-42.161,3.591c-4.969,1.176-9.461,2.644-13.351,4.28c-3.801,1.602-7.014,3.435-9.535,5.379
					c0.002,0.004,0.002,0.011,0.004,0.019c0.004,0.043,0.009,0.081,0.014,0.124l0.124-0.002c2.56-1.958,7.178-3.759,11.061-5.359
					c3.876-1.607,10.129-2.997,15.071-4.146c9.888-2.306,26.166-3.593,38.774-3.529c3.451,0.017,7.184,0.147,10.984,0.367
					C75.995,68.121,75.946,67.991,75.897,67.858z"/>
				<path opacity="0.098" fill="#999999" d="M75.787,67.559c-3.78-0.2-7.434-0.32-10.728-0.336
					c-12.984-0.063-31.484,1.276-41.646,3.683c-5.08,1.198-9.676,2.695-13.65,4.366c-3.889,1.638-7.174,3.507-9.752,5.497
					c0,0.009,0.002,0.018,0.004,0.028c0.004,0.036,0.004,0.072,0.012,0.108l0.128-0.002c2.61-1.999,7.085-3.842,11.052-5.476
					c3.961-1.638,10.023-3.063,15.07-4.242c10.108-2.35,25.895-3.671,38.782-3.609c3.469,0.018,7.149,0.146,10.869,0.364
					C75.88,67.812,75.833,67.686,75.787,67.559z"/>
				<path opacity="0.0784" fill="#999999" d="M75.674,67.259c-3.683-0.2-7.285-0.322-10.614-0.337
					c-13.267-0.063-30.755,1.312-41.136,3.767c-5.191,1.232-9.883,2.746-13.945,4.457c-3.971,1.673-7.338,3.576-9.97,5.611
					c0.003,0.013,0.005,0.027,0.007,0.041c0.004,0.033,0.004,0.062,0.012,0.097l0.128-0.001c2.673-2.045,6.994-3.928,11.044-5.599
					c4.051-1.674,9.911-3.129,15.076-4.333c10.322-2.407,25.617-3.76,38.784-3.695c3.487,0.018,7.118,0.177,10.765,0.396
					C75.773,67.527,75.725,67.394,75.674,67.259z"/>
				<path opacity="0.0588" fill="#999999" d="M75.562,66.957c-3.59-0.201-7.137-0.323-10.503-0.34
					c-13.548-0.064-30.018,1.346-40.62,3.855c-5.305,1.254-10.095,2.798-14.245,4.548c-4.059,1.705-7.497,3.645-10.188,5.727
					c0,0.018,0.007,0.031,0.009,0.05c0.002,0.027,0.004,0.053,0.009,0.085l0.134-0.001c2.727-2.09,6.896-4.014,11.033-5.721
					c4.137-1.711,9.803-3.199,15.074-4.428c10.543-2.455,25.346-3.84,38.791-3.773c3.501,0.018,7.078,0.184,10.656,0.404
					C75.662,67.228,75.613,67.092,75.562,66.957z"/>
				<path opacity="0.0392" fill="#999999" d="M75.467,66.697c-3.504-0.209-7.002-0.365-10.41-0.382
					c-13.83-0.062-29.284,1.378-40.104,3.942c-5.409,1.281-10.308,2.851-14.54,4.635c-4.15,1.742-7.658,3.719-10.408,5.844
					c0.003,0.02,0.005,0.04,0.012,0.061c0.002,0.024,0.004,0.044,0.006,0.072l0.139-0.001c2.783-2.132,6.807-4.098,11.029-5.841
					c4.217-1.745,9.683-3.267,15.068-4.521c10.76-2.508,25.076-3.925,38.802-3.857c3.509,0.018,7.029,0.181,10.536,0.398
					C75.551,66.93,75.51,66.814,75.467,66.697z"/>
				<path opacity="0.0196" fill="#999999" d="M75.355,66.396c-3.42-0.21-6.855-0.367-10.301-0.383
					c-14.109-0.069-28.547,1.412-39.588,4.026c-5.519,1.308-10.512,2.903-14.838,4.721c-4.238,1.785-7.821,3.794-10.627,5.964
					c0.005,0.024,0.007,0.049,0.014,0.072c0.002,0.02,0.002,0.04,0.004,0.058l0.141,0.002c2.841-2.176,6.711-4.181,11.02-5.963
					c4.31-1.778,9.578-3.333,15.073-4.614c10.979-2.559,24.799-4.006,38.804-3.942c3.516,0.018,6.985,0.18,10.424,0.395
					C75.438,66.621,75.396,66.509,75.355,66.396z"/>
				<path opacity="0" fill="#999999" d="M75.242,66.094c-3.331-0.209-6.709-0.365-10.187-0.382
					c-14.394-0.068-27.813,1.445-39.074,4.115c-5.632,1.33-10.73,2.951-15.136,4.804C6.521,76.455,2.861,78.498,0,80.714
					c0.004,0.029,0.012,0.055,0.016,0.083c0.002,0.014,0.002,0.031,0.004,0.044l0.141,0.003c2.9-2.221,6.618-4.265,11.016-6.083
					c4.393-1.814,9.464-3.402,15.064-4.705c11.205-2.61,24.534-4.093,38.815-4.029c3.52,0.018,6.936,0.179,10.309,0.391
					C75.322,66.31,75.283,66.202,75.242,66.094z"/>
			</g>
			<g>
				<g>
					<g>
						<path fill="#999999" d="M80.33,81.311l-60.578-0.295l0.002,0.342l60.654,0.295C80.381,81.539,80.356,81.424,80.33,81.311z"/>
					</g>
				</g>
			</g>
		</g>
	</g>
	<path fill="#3064DC" d="M179.42,36.056H46.17c33.5-0.18,33.947,60.188,33.988,84.063c0.015,9.73-0.109,3.278-0.183,64.881
		l69.29,55.16L212.303,185c-0.116-23.218,0.453-57.36,0-68.097C209.271,45.056,179.42,36.056,179.42,36.056z"/>
	<linearGradient id="SVGID_2_" gradientUnits="userSpaceOnUse" x1="129.2967" y1="240.1602" x2="129.2967" y2="36.0558">
		<stop  offset="0" style="stop-color:#FFFFFF"/>
		<stop  offset="0.13" style="stop-color:#F3F3F3"/>
		<stop  offset="0.3091" style="stop-color:#E6E6E6"/>
		<stop  offset="0.4678" style="stop-color:#F7F7F7"/>
		<stop  offset="0.5939" style="stop-color:#FFFFFF"/>
		<stop  offset="0.7693" style="stop-color:#FDFDFD"/>
		<stop  offset="0.8552" style="stop-color:#F5F5F5"/>
		<stop  offset="0.9217" style="stop-color:#E8E8E8"/>
		<stop  offset="0.9779" style="stop-color:#D6D6D6"/>
		<stop  offset="1" style="stop-color:#CCCCCC"/>
	</linearGradient>
	<path fill="url(#SVGID_2_)" d="M179.42,36.056H46.17c33.5-0.18,33.947,60.188,33.988,84.063c0.015,9.73-0.109,3.278-0.183,64.881
		l69.29,55.16L212.303,185c0.057-19.911,0.229-57.353,0.02-68.974C211.091,47.931,179.42,36.056,179.42,36.056z"/>
</g>
</svg>
